<svg width="38" height="1380" viewBox="0 0 38 1380" fill="none" xmlns="http://www.w3.org/2000/svg">
<path d="M21.1305 2.99805C21.1305 1.61733 20.0112 0.498047 18.6305 0.498047C17.2498 0.498047 16.1305 1.61733 16.1305 2.99805H21.1305ZM16.8627 1378.77C17.839 1379.75 19.4219 1379.75 20.3983 1378.77L36.3082 1362.86C37.2845 1361.88 37.2845 1360.3 36.3082 1359.32C35.3319 1358.35 33.7489 1358.35 32.7726 1359.32L18.6305 1373.47L4.48836 1359.32C3.51205 1358.35 1.92913 1358.35 0.952824 1359.32C-0.0234871 1360.3 -0.0234871 1361.88 0.952824 1362.86L16.8627 1378.77ZM16.1305 2.99805L16.1305 1377H21.1305L21.1305 2.99805H16.1305Z" fill="black"/>
</svg>
