<svg width="40" height="44" viewBox="0 0 40 44" fill="none" xmlns="http://www.w3.org/2000/svg">
<path d="M34.9287 0C37.5063 0 39.5853 2.0845 39.7082 4.5375V44L34.8003 39.8328L32.1053 37.3798L29.1647 34.8168L30.393 38.8593H4.65667C2.08633 38.8593 0 36.9068 0 34.32V4.54667C0 2.09367 2.09 0.0055 4.66583 0.0055H34.9158L34.9287 0ZM23.7123 10.4188H23.6573L23.287 10.7855C27.0875 11.8855 28.9263 13.6033 28.9263 13.6033C26.477 12.3787 24.2697 11.7663 22.0623 11.5188C20.4673 11.2713 18.8723 11.4015 17.5248 11.5188H17.1582C16.2965 11.5188 14.4632 11.8855 12.0065 12.8663C11.1503 13.2385 10.659 13.4823 10.659 13.4823C10.659 13.4823 12.496 11.6453 16.544 10.6645L16.2965 10.417C16.2965 10.417 13.2312 10.2997 9.922 12.7453C9.922 12.7453 6.61283 18.5093 6.61283 25.6153C6.61283 25.6153 8.44617 28.8053 13.475 28.9263C13.475 28.9263 14.2083 27.9492 14.9508 27.0893C12.1275 26.2313 11.0275 24.5153 11.0275 24.5153C11.0275 24.5153 11.2732 24.6363 11.6417 24.882H11.7517C11.8067 24.882 11.8323 24.9095 11.8617 24.937V24.948C11.891 24.9773 11.9167 25.003 11.9717 25.003C12.5767 25.2523 13.1817 25.498 13.6767 25.7363C14.7353 26.1895 15.8426 26.5192 16.9767 26.719C18.6817 26.9665 20.636 27.0857 22.8617 26.719C23.9617 26.4715 25.0617 26.2295 26.1617 25.7382C26.8767 25.3715 27.7567 25.0048 28.7228 24.387C28.7228 24.387 27.6228 26.103 24.6803 26.961C25.2853 27.8153 26.1378 28.7943 26.1378 28.7943C31.1685 28.6843 33.1228 25.4943 33.2328 25.63C33.2328 18.535 29.9053 12.76 29.9053 12.76C26.9078 10.5343 24.1028 10.45 23.6078 10.45L23.7105 10.4133L23.7123 10.4188ZM24.0203 18.5093C25.3092 18.5093 26.3487 19.6093 26.3487 20.9568C26.3487 22.3135 25.3037 23.4135 24.0203 23.4135C22.737 23.4135 21.692 22.3135 21.692 20.9678C21.6957 19.6112 22.7425 18.5148 24.0203 18.5148V18.5093ZM15.6915 18.5093C16.9748 18.5093 18.0125 19.6093 18.0125 20.9568C18.0125 22.3135 16.9675 23.4135 15.6842 23.4135C14.4008 23.4135 13.3558 22.3135 13.3558 20.9678C13.3558 19.6112 14.4008 18.5148 15.6842 18.5148L15.6915 18.5093Z" fill="#FBF8F8"/>
</svg>
