<svg width="82" height="57" viewBox="0 0 82 57" fill="none" xmlns="http://www.w3.org/2000/svg">
<path d="M79.6921 2.34113C79.6921 21.2166 63.2695 30.1422 45.8366 30.1422C36.4643 30.1422 30.1356 27.6533 25.8199 19.0218C23.3614 14.1049 32.8909 12.3495 36.3225 12.3495C42.6872 12.3495 44.0322 13.556 48.9874 16.8595C52.7166 19.3456 56.0495 30.3127 54.9801 34.5903C50.2343 53.5735 17.4655 47.9349 4.07326 47.9349" stroke="#404A65" stroke-width="3" stroke-linecap="round"/>
<path d="M2.93028 47.1524C3.28459 47.1271 3.52197 47.0446 3.86778 46.9122C5.49103 46.2905 7.11132 45.7036 8.77221 45.1844C11.6536 44.2836 14.4675 43.519 17.1554 42.1317" stroke="#404A65" stroke-width="3" stroke-linecap="round"/>
<path d="M2.37244 47.1523C3.97137 50.0837 6.0648 52.553 8.36932 54.9622" stroke="#404A65" stroke-width="3" stroke-linecap="round"/>
</svg>
